<svg width="347" height="59" viewBox="0 0 347 59" fill="none" xmlns="http://www.w3.org/2000/svg">
<path d="M29.9316 17.3857H19.043V47H11.7188V17.3857H0.976562V11.4531H29.9316V17.3857ZM62.6465 30.0322C62.6465 33.5316 62.028 36.5996 60.791 39.2363C59.554 41.873 57.7799 43.9076 55.4688 45.3398C53.1738 46.7721 50.5371 47.4883 47.5586 47.4883C44.6126 47.4883 41.984 46.7803 39.6729 45.3643C37.3617 43.9482 35.5713 41.93 34.3018 39.3096C33.0322 36.6729 32.3893 33.6455 32.373 30.2275V28.4697C32.373 24.9704 32.9997 21.8942 34.2529 19.2412C35.5225 16.5719 37.3047 14.5293 39.5996 13.1133C41.9108 11.681 44.5475 10.9648 47.5098 10.9648C50.472 10.9648 53.1006 11.681 55.3955 13.1133C57.7067 14.5293 59.4889 16.5719 60.7422 19.2412C62.0117 21.8942 62.6465 24.9622 62.6465 28.4453V30.0322ZM55.2246 28.4209C55.2246 24.6937 54.5573 21.8617 53.2227 19.9248C51.888 17.988 49.9837 17.0195 47.5098 17.0195C45.0521 17.0195 43.1559 17.9798 41.8213 19.9004C40.4867 21.8047 39.8112 24.6042 39.7949 28.2988V30.0322C39.7949 33.6618 40.4622 36.4775 41.7969 38.4795C43.1315 40.4814 45.0521 41.4824 47.5586 41.4824C50.0163 41.4824 51.9043 40.5221 53.2227 38.6016C54.541 36.6647 55.2083 33.849 55.2246 30.1543V28.4209ZM81.2256 34.6221H67.4805V28.9336H81.2256V34.6221ZM87.3535 47V11.4531H98.291C101.416 11.4531 104.207 12.1611 106.665 13.5771C109.139 14.9769 111.068 16.9788 112.451 19.583C113.835 22.1709 114.526 25.1169 114.526 28.4209V30.0566C114.526 33.3607 113.843 36.2985 112.476 38.8701C111.125 41.4417 109.212 43.4355 106.738 44.8516C104.264 46.2676 101.473 46.9837 98.3643 47H87.3535ZM94.6777 17.3857V41.1162H98.2178C101.082 41.1162 103.271 40.1803 104.785 38.3086C106.299 36.4368 107.072 33.7594 107.104 30.2764V28.3965C107.104 24.7832 106.356 22.0488 104.858 20.1934C103.361 18.3216 101.172 17.3857 98.291 17.3857H94.6777ZM149.072 30.0322C149.072 33.5316 148.454 36.5996 147.217 39.2363C145.98 41.873 144.206 43.9076 141.895 45.3398C139.6 46.7721 136.963 47.4883 133.984 47.4883C131.038 47.4883 128.41 46.7803 126.099 45.3643C123.787 43.9482 121.997 41.93 120.728 39.3096C119.458 36.6729 118.815 33.6455 118.799 30.2275V28.4697C118.799 24.9704 119.425 21.8942 120.679 19.2412C121.948 16.5719 123.73 14.5293 126.025 13.1133C128.337 11.681 130.973 10.9648 133.936 10.9648C136.898 10.9648 139.526 11.681 141.821 13.1133C144.132 14.5293 145.915 16.5719 147.168 19.2412C148.438 21.8942 149.072 24.9622 149.072 28.4453V30.0322ZM141.65 28.4209C141.65 24.6937 140.983 21.8617 139.648 19.9248C138.314 17.988 136.41 17.0195 133.936 17.0195C131.478 17.0195 129.582 17.9798 128.247 19.9004C126.912 21.8047 126.237 24.6042 126.221 28.2988V30.0322C126.221 33.6618 126.888 36.4775 128.223 38.4795C129.557 40.4814 131.478 41.4824 133.984 41.4824C136.442 41.4824 138.33 40.5221 139.648 38.6016C140.967 36.6647 141.634 33.849 141.65 30.1543V28.4209ZM174.17 41.1162H189.722V47H166.846V11.4531H174.17V41.1162ZM201.733 47H194.409V11.4531H201.733V47ZM226.978 37.6738C226.978 36.2904 226.489 35.2324 225.513 34.5C224.536 33.7513 222.778 32.9701 220.239 32.1562C217.7 31.3262 215.69 30.5124 214.209 29.7148C210.173 27.5339 208.154 24.596 208.154 20.9014C208.154 18.9808 208.691 17.2718 209.766 15.7744C210.856 14.2607 212.41 13.0807 214.429 12.2344C216.463 11.388 218.742 10.9648 221.265 10.9648C223.804 10.9648 226.066 11.4287 228.052 12.3564C230.037 13.2679 231.576 14.5618 232.666 16.2383C233.773 17.9147 234.326 19.819 234.326 21.9512H227.002C227.002 20.3236 226.489 19.0622 225.464 18.167C224.438 17.2555 222.998 16.7998 221.143 16.7998C219.352 16.7998 217.961 17.1823 216.968 17.9473C215.975 18.696 215.479 19.6888 215.479 20.9258C215.479 22.0814 216.056 23.0498 217.212 23.8311C218.384 24.6123 220.101 25.3447 222.363 26.0283C226.53 27.2816 229.565 28.8359 231.47 30.6914C233.374 32.5469 234.326 34.8581 234.326 37.625C234.326 40.7012 233.162 43.1182 230.835 44.876C228.507 46.6175 225.374 47.4883 221.436 47.4883C218.701 47.4883 216.211 46.9919 213.965 45.999C211.719 44.9899 210.002 43.6146 208.813 41.873C207.642 40.1315 207.056 38.1133 207.056 35.8184H214.404C214.404 39.7409 216.748 41.7021 221.436 41.7021C223.177 41.7021 224.536 41.3522 225.513 40.6523C226.489 39.9362 226.978 38.9434 226.978 37.6738ZM266.064 17.3857H255.176V47H247.852V17.3857H237.109V11.4531H266.064V17.3857Z" fill="black"/>
<g clip-path="url(#clip0)">
<path d="M318 0.00036241C334.016 0.00036241 347 12.9841 347 29.0003C347 45.0165 334.016 58.0002 318 58.0002C301.984 58.0002 289 45.0165 289 29.0003C288.955 13.0295 301.865 0.0459355 317.835 0.00036241C317.89 0.000204718 317.945 0.000204718 318 0.00036241Z" fill="#4AA746"/>
<path d="M334.065 21.0086L313.469 41.6051L301.935 30.1534L306.631 25.5398L313.469 32.2955L329.369 16.395L334.065 21.0086Z" fill="white"/>
</g>
<defs>
<clipPath id="clip0">
<rect width="58" height="58" fill="white" transform="translate(289)"/>
</clipPath>
</defs>
</svg>
